<svg width="18" height="18" viewBox="0 0 18 18" fill="none" xmlns="http://www.w3.org/2000/svg">
<path d="M5.88889 2H3.55556C3.143 2 2.74733 2.16389 2.45561 2.45561C2.16389 2.74733 2 3.143 2 3.55556V5.88889M16 5.88889V3.55556C16 3.143 15.8361 2.74733 15.5444 2.45561C15.2527 2.16389 14.857 2 14.4444 2H12.1111M2 12.1111V14.4444C2 14.857 2.16389 15.2527 2.45561 15.5444C2.74733 15.8361 3.143 16 3.55556 16H5.88889M12.1111 16H14.4444C14.857 16 15.2527 15.8361 15.5444 15.5444C15.8361 15.2527 16 14.857 16 14.4444V12.1111" stroke="#D9D9D9" stroke-width="3" stroke-linecap="round" stroke-linejoin="round"/>
</svg>
