<svg width="20" height="20" viewBox="0 0 20 20" fill="none" xmlns="http://www.w3.org/2000/svg">
<path d="M6.44444 2V4.66667C6.44444 5.13816 6.25714 5.59035 5.92375 5.92375C5.59035 6.25714 5.13816 6.44444 4.66667 6.44444H2M18 6.44444H15.3333C14.8618 6.44444 14.4097 6.25714 14.0763 5.92375C13.7429 5.59035 13.5556 5.13816 13.5556 4.66667V2M2 13.5556H4.66667C5.13816 13.5556 5.59035 13.7429 5.92375 14.0763C6.25714 14.4097 6.44444 14.8618 6.44444 15.3333V18M13.5556 18V15.3333C13.5556 14.8618 13.7429 14.4097 14.0763 14.0763C14.4097 13.7429 14.8618 13.5556 15.3333 13.5556H18" stroke="#D9D9D9" stroke-width="3" stroke-linecap="round" stroke-linejoin="round"/>
</svg>
