<svg width="31" height="31" viewBox="0 0 31 31" fill="none" xmlns="http://www.w3.org/2000/svg">
<g clip-path="url(#clip0_41_6)">
<g filter="url(#filter0_d_41_6)">
<path d="M2 22.5556L6.22634 7H11.5093L15.7356 22.5556H12.6118L11.739 19.1333H5.99665L5.12382 22.5556H2ZM6.7087 16.4222H11.0269L9.07453 8.84444H8.66108L6.7087 16.4222Z" fill="#D9D9D9"/>
<path d="M13.0204 27L19.7734 7H22.6675L15.9145 27H13.0204Z" fill="#7D7DFF"/>
<path d="M25.5087 22.5556C24.7583 22.5556 24.1458 22.3333 23.6711 21.8889C23.2117 21.4296 22.9821 20.8222 22.9821 20.0667V13.8444H20.1339V11.5333H22.9821V8.11111H25.8762V11.5333H29V13.8444H25.8762V19.5778C25.8762 20.0222 26.0906 20.2444 26.5193 20.2444H28.7244V22.5556H25.5087Z" fill="#7D7DFF"/>
</g>
</g>
<defs>
<filter id="filter0_d_41_6" x="0.5" y="5.5" width="31" height="24" filterUnits="userSpaceOnUse" color-interpolation-filters="sRGB">
<feFlood flood-opacity="0" result="BackgroundImageFix"/>
<feColorMatrix in="SourceAlpha" type="matrix" values="0 0 0 0 0 0 0 0 0 0 0 0 0 0 0 0 0 0 127 0" result="hardAlpha"/>
<feOffset dx="0.5" dy="0.5"/>
<feGaussianBlur stdDeviation="1"/>
<feComposite in2="hardAlpha" operator="out"/>
<feColorMatrix type="matrix" values="0 0 0 0 0 0 0 0 0 0 0 0 0 0 0 0 0 0 0.4 0"/>
<feBlend mode="normal" in2="BackgroundImageFix" result="effect1_dropShadow_41_6"/>
<feBlend mode="normal" in="SourceGraphic" in2="effect1_dropShadow_41_6" result="shape"/>
</filter>
<clipPath id="clip0_41_6">
<rect width="31" height="31" fill="white"/>
</clipPath>
</defs>
</svg>
