<svg width="80" height="84" viewBox="0 0 80 84" fill="none" xmlns="http://www.w3.org/2000/svg">
<g filter="url(#filter0_d_39_5)">
<path d="M1 62.8L12.776 18H27.496L39.272 62.8H30.568L28.136 52.944H12.136L9.704 62.8H1ZM14.12 45.136H26.152L20.712 23.312H19.56L14.12 45.136Z" fill="#D9D9D9"/>
<path d="M31.7065 75.6L50.5225 18H58.5865L39.7705 75.6H31.7065Z" fill="#7D7DFF"/>
<path d="M66.503 62.8C64.4123 62.8 62.7057 62.16 61.383 60.88C60.103 59.5573 59.463 57.808 59.463 55.632V37.712H51.527V31.056H59.463V21.2H67.527V31.056H76.231V37.712H67.527V54.224C67.527 55.504 68.1243 56.144 69.319 56.144H75.463V62.8H66.503Z" fill="#7D7DFF"/>
</g>
<defs>
<filter id="filter0_d_39_5" x="0" y="17" width="79.231" height="61.6" filterUnits="userSpaceOnUse" color-interpolation-filters="sRGB">
<feFlood flood-opacity="0" result="BackgroundImageFix"/>
<feColorMatrix in="SourceAlpha" type="matrix" values="0 0 0 0 0 0 0 0 0 0 0 0 0 0 0 0 0 0 127 0" result="hardAlpha"/>
<feOffset dx="1" dy="1"/>
<feGaussianBlur stdDeviation="1"/>
<feComposite in2="hardAlpha" operator="out"/>
<feColorMatrix type="matrix" values="0 0 0 0 0 0 0 0 0 0 0 0 0 0 0 0 0 0 0.4 0"/>
<feBlend mode="normal" in2="BackgroundImageFix" result="effect1_dropShadow_39_5"/>
<feBlend mode="normal" in="SourceGraphic" in2="effect1_dropShadow_39_5" result="shape"/>
</filter>
</defs>
</svg>
