<svg width="18" height="18" viewBox="0 0 18 18" fill="none" xmlns="http://www.w3.org/2000/svg">
<path d="M4.04846 4.05196L5.10948 5.11226L5.10948 5.11226L4.04846 4.05196ZM11.1052 14.0831C11.8704 13.7657 12.748 14.1288 13.0654 14.894C13.3828 15.6592 13.0198 16.5368 12.2545 16.8542L11.1052 14.0831ZM15.4103 2.17072L14.3497 1.10999L15.4103 2.17072ZM12.8903 5.11226C11.8933 4.11452 10.5198 3.5 8.99991 3.5V0.5C11.3478 0.5 13.4757 1.4539 15.0124 2.99167L12.8903 5.11226ZM8.99991 3.5C7.48004 3.5 6.10654 4.11452 5.10948 5.11226L2.98743 2.99166C4.52415 1.45389 6.65206 0.5 8.99991 0.5V3.5ZM5.10948 5.11226C4.11333 6.10909 3.49991 7.48148 3.49991 9H0.499912C0.499912 6.65426 1.45209 4.52806 2.98743 2.99166L5.10948 5.11226ZM3.49991 9C3.49991 10.5192 4.11388 11.8921 5.11082 12.8891L2.9895 15.0104C1.45295 13.4739 0.499912 11.3468 0.499912 9H3.49991ZM5.11082 12.8891C6.10777 13.886 7.48071 14.5 8.99991 14.5V17.5C6.65312 17.5 4.52606 16.547 2.9895 15.0104L5.11082 12.8891ZM8.99991 14.5C9.74856 14.5 10.4587 14.3513 11.1052 14.0831L12.2545 16.8542C11.2501 17.2708 10.1499 17.5 8.99991 17.5V14.5ZM14.0806 5.89983L14.081 2.24126L17.081 2.24163L17.0806 5.9002L14.0806 5.89983ZM16.4709 3.23144L12.8119 6.89001L10.6907 4.76856L14.3497 1.10999L16.4709 3.23144ZM11.822 4.5H15.4806V7.5H11.822V4.5ZM12.8119 6.89001C13.6939 6.00809 13.0693 4.5 11.822 4.5V7.5C10.3965 7.5 9.68267 5.77647 10.6907 4.76856L12.8119 6.89001ZM14.081 2.24126C14.0809 3.48857 15.5889 4.11337 16.4709 3.23144L14.3497 1.10999C15.3578 0.102075 17.0812 0.81613 17.081 2.24163L14.081 2.24126ZM17.0806 5.9002C17.0805 6.78377 16.3642 7.5 15.4806 7.5V4.5C14.7074 4.5 14.0807 5.1267 14.0806 5.89983L17.0806 5.9002Z" fill="#D9D9D9"/>
</svg>
