<svg width="18" height="18" viewBox="0 0 18 18" fill="none" xmlns="http://www.w3.org/2000/svg">
<path d="M13.5321 4.05196L12.4711 5.11226L12.4711 5.11226L13.5321 4.05196ZM6.47538 14.0831C5.71016 13.7657 4.83253 14.1288 4.51515 14.894C4.19777 15.6592 4.56081 16.5368 5.32602 16.8542L6.47538 14.0831ZM2.17025 2.17072L3.23084 1.10999L2.17025 2.17072ZM4.69022 5.11226C5.68728 4.11452 7.06078 3.5 8.58065 3.5V0.5C6.2328 0.5 4.10489 1.4539 2.56817 2.99167L4.69022 5.11226ZM8.58065 3.5C10.1005 3.5 11.474 4.11452 12.4711 5.11226L14.5931 2.99166C13.0564 1.45389 10.9285 0.5 8.58065 0.5V3.5ZM12.4711 5.11226C13.4672 6.10909 14.0807 7.48148 14.0807 9H17.0807C17.0807 6.65426 16.1285 4.52806 14.5931 2.99166L12.4711 5.11226ZM14.0807 9C14.0807 10.5192 13.4667 11.8921 12.4697 12.8891L14.5911 15.0104C16.1276 13.4739 17.0807 11.3468 17.0807 9H14.0807ZM12.4697 12.8891C11.4728 13.886 10.0999 14.5 8.58065 14.5V17.5C10.9274 17.5 13.0545 16.547 14.5911 15.0104L12.4697 12.8891ZM8.58065 14.5C7.832 14.5 7.12188 14.3513 6.47538 14.0831L5.32602 16.8542C6.33046 17.2708 7.43069 17.5 8.58065 17.5V14.5ZM3.49999 5.89983L3.49954 2.24126L0.499541 2.24163L0.499988 5.9002L3.49999 5.89983ZM1.10965 3.23144L4.76867 6.89001L6.88986 4.76856L3.23084 1.10999L1.10965 3.23144ZM5.75856 4.5H2.09999V7.5H5.75856V4.5ZM4.76867 6.89001C3.88664 6.00809 4.51125 4.5 5.75856 4.5V7.5C7.18406 7.5 7.8979 5.77647 6.88986 4.76856L4.76867 6.89001ZM3.49954 2.24126C3.49969 3.48857 1.99169 4.11337 1.10965 3.23144L3.23084 1.10999C2.2228 0.102075 0.499367 0.81613 0.499541 2.24163L3.49954 2.24126ZM0.499988 5.9002C0.500096 6.78377 1.21641 7.5 2.09999 7.5V4.5C2.87312 4.5 3.49989 5.1267 3.49999 5.89983L0.499988 5.9002Z" fill="#D9D9D9"/>
</svg>
