<svg width="95" height="34" viewBox="0 0 95 34" fill="none" xmlns="http://www.w3.org/2000/svg">
<g filter="url(#filter0_d_30_19)">
<path d="M1.576 24L7.464 1.6H14.824L20.712 24H16.36L15.144 19.072H7.144L5.928 24H1.576ZM8.136 15.168H14.152L11.432 4.256H10.856L8.136 15.168ZM23.5213 24V8.128H27.4893V10.208H28.0653C28.3213 9.65333 28.8013 9.13067 29.5052 8.64C30.2093 8.128 31.2759 7.872 32.7053 7.872C33.9426 7.872 35.0199 8.16 35.9373 8.736C36.8759 9.29067 37.6013 10.0693 38.1133 11.072C38.6253 12.0533 38.8813 13.2053 38.8813 14.528V24H34.8493V14.848C34.8493 13.6533 34.5506 12.7573 33.9533 12.16C33.3773 11.5627 32.5453 11.264 31.4573 11.264C30.2199 11.264 29.2599 11.68 28.5773 12.512C27.8946 13.3227 27.5533 14.464 27.5533 15.936V24H23.5213ZM43.24 24V8.128H47.272V24H43.24ZM45.256 6.272C44.5307 6.272 43.912 6.03733 43.4 5.568C42.9093 5.09867 42.664 4.48 42.664 3.712C42.664 2.944 42.9093 2.32533 43.4 1.856C43.912 1.38667 44.5307 1.152 45.256 1.152C46.0027 1.152 46.6213 1.38667 47.112 1.856C47.6027 2.32533 47.848 2.944 47.848 3.712C47.848 4.48 47.6027 5.09867 47.112 5.568C46.6213 6.03733 46.0027 6.272 45.256 6.272ZM55.068 24L50.012 8.128H54.3L57.98 21.056H58.556L62.236 8.128H66.524L61.468 24H55.068Z" fill="#D9D9D9"/>
<path d="M65.863 30.4L75.271 1.6H79.303L69.895 30.4H65.863ZM87.1013 24C86.0559 24 85.2026 23.68 84.5413 23.04C83.9013 22.3787 83.5813 21.504 83.5813 20.416V11.456H79.6133V8.128H83.5813V3.2H87.6133V8.128H91.9653V11.456H87.6133V19.712C87.6133 20.352 87.9119 20.672 88.5093 20.672H91.5813V24H87.1013Z" fill="#7D7DFF"/>
</g>
<defs>
<filter id="filter0_d_30_19" x="0.575928" y="0.152008" width="94.3894" height="33.248" filterUnits="userSpaceOnUse" color-interpolation-filters="sRGB">
<feFlood flood-opacity="0" result="BackgroundImageFix"/>
<feColorMatrix in="SourceAlpha" type="matrix" values="0 0 0 0 0 0 0 0 0 0 0 0 0 0 0 0 0 0 127 0" result="hardAlpha"/>
<feOffset dx="1" dy="1"/>
<feGaussianBlur stdDeviation="1"/>
<feComposite in2="hardAlpha" operator="out"/>
<feColorMatrix type="matrix" values="0 0 0 0 0 0 0 0 0 0 0 0 0 0 0 0 0 0 0.4 0"/>
<feBlend mode="normal" in2="BackgroundImageFix" result="effect1_dropShadow_30_19"/>
<feBlend mode="normal" in="SourceGraphic" in2="effect1_dropShadow_30_19" result="shape"/>
</filter>
</defs>
</svg>
